<svg width="521" height="1007" viewBox="0 0 521 1007" fill="none" xmlns="http://www.w3.org/2000/svg">
    <g opacity="0.5" filter="url(#filter0_f_7_435)">
        <ellipse cx="262.85" cy="911.798" rx="126.476" ry="9.39147" fill="url(#paint0_linear_7_435)"/>
    </g>
    <path d="M41.8716 288.491C39.1985 165.856 137.88 65 260.544 65C383.311 65 482.034 166.02 479.21 288.755L469.904 693.192C469.097 728.258 468.694 745.791 462.41 760.488C456.881 773.42 448.152 784.733 437.044 793.361C424.421 803.166 407.563 808.002 373.848 817.675L318.845 833.454C289.736 841.806 275.181 845.981 260.24 845.981C245.299 845.981 230.744 841.806 201.634 833.454L146.83 817.732C112.998 808.026 96.0822 803.173 83.4292 793.32C72.3599 784.7 63.6598 773.411 58.1441 760.511C51.8393 745.765 51.4558 728.171 50.6887 692.983L41.8716 288.491Z"
          fill="url(#paint1_linear_7_435)"/>
    <path opacity="0.6"
          d="M260.313 417.72C260.388 222.896 483.466 99.252 478.983 294.024L469.811 692.615C469.002 727.747 468.598 745.313 462.44 760.018C456.975 773.066 448.328 784.458 437.326 793.102C424.928 802.843 408.399 807.585 375.341 817.067L316.16 834.043C288.331 842.026 274.416 846.017 260.148 846.017L260.313 417.72Z"
          fill="url(#paint2_linear_7_435)"/>
    <g filter="url(#filter1_d_7_435)">
        <g filter="url(#filter2_ii_7_435)">
            <path d="M106.551 269.651C104.387 205.996 145.301 148.843 206.256 130.372L211.61 128.749C243.604 119.054 277.753 119.054 309.747 128.749L314.829 130.289C375.92 148.802 416.882 206.136 414.593 269.93L411.937 343.949C409.013 425.468 342.079 490.043 260.507 490.043C178.824 490.043 111.841 425.299 109.067 343.663L106.551 269.651Z"
                  fill="url(#paint3_linear_7_435)"/>
        </g>
        <g opacity="0.2" filter="url(#filter3_f_7_435)">
            <path d="M169.357 420.691C167.856 406.129 178.47 393.118 193.037 391.661L251.557 385.81C257.977 385.169 264.444 385.169 270.863 385.81L329.19 391.642C343.839 393.107 354.485 406.233 352.893 420.869C350.52 442.694 332.09 459.228 310.137 459.228H212.067C190.058 459.228 171.612 442.585 169.357 420.691Z"
                  fill="url(#paint4_linear_7_435)"/>
        </g>
    </g>
    <g filter="url(#filter4_dd_7_435)">
        <path d="M274.917 434.398C274.917 437.856 268.961 440.659 261.613 440.659C254.265 440.659 248.308 437.856 248.308 434.398C248.308 430.94 254.265 428.137 261.613 428.137C268.961 428.137 274.917 430.94 274.917 434.398Z"
              fill="url(#paint5_linear_7_435)"/>
    </g>
    <g filter="url(#filter5_dd_7_435)">
        <circle cx="173.014" cy="280.71" r="37.1913" fill="url(#paint6_linear_7_435)"/>
    </g>
    <ellipse cx="173.014" cy="335.434" rx="17.0017" ry="9.03217" fill="url(#paint7_linear_7_435)"/>
    <path d="M164.663 187.114C167.055 176.005 176.877 168.073 188.241 168.073C189.808 168.073 191.079 169.343 191.079 170.911V220.527C191.079 229.703 183.639 237.143 174.463 237.143C163.877 237.143 155.991 227.376 158.22 217.028L164.663 187.114Z"
          fill="url(#paint8_linear_7_435)"/>
    <path d="M163.202 408.28C165.183 420.498 175.733 429.475 188.11 429.475C189.749 429.475 191.079 428.145 191.079 426.506V367.939C191.079 358.496 183.424 350.842 173.981 350.842C163.446 350.842 155.417 360.277 157.104 370.676L163.202 408.28Z"
          fill="url(#paint9_linear_7_435)"/>
    <g filter="url(#filter6_dd_7_435)">
        <circle r="37.1913" transform="matrix(-1 0 0 1 346.219 280.71)" fill="url(#paint10_linear_7_435)"/>
    </g>
    <ellipse rx="17.0017" ry="9.03217" transform="matrix(-1 0 0 1 346.219 335.434)" fill="url(#paint11_linear_7_435)"/>
    <path d="M354.57 187.114C352.178 176.005 342.356 168.073 330.992 168.073C329.425 168.073 328.155 169.343 328.155 170.911V220.527C328.155 229.703 335.594 237.143 344.77 237.143C355.356 237.143 363.242 227.376 361.014 217.028L354.57 187.114Z"
          fill="url(#paint12_linear_7_435)"/>
    <path d="M356.032 408.28C354.05 420.498 343.5 429.475 331.123 429.475C329.484 429.475 328.155 428.145 328.155 426.506V367.939C328.155 358.496 335.81 350.842 345.252 350.842C355.787 350.842 363.816 360.277 362.13 370.676L356.032 408.28Z"
          fill="url(#paint13_linear_7_435)"/>
    <defs>
        <filter id="filter0_f_7_435" x="51.369" y="817.401" width="422.962" height="188.793"
                filterUnits="userSpaceOnUse" color-interpolation-filters="sRGB">
            <feFlood flood-opacity="0" result="BackgroundImageFix"/>
            <feBlend mode="normal" in="SourceGraphic" in2="BackgroundImageFix" result="shape"/>
            <feGaussianBlur stdDeviation="42.5025" result="effect1_foregroundBlur_7_435"/>
        </filter>
        <filter id="filter1_d_7_435" x="0.208145" y="0.340661" width="520.737" height="581.087"
                filterUnits="userSpaceOnUse" color-interpolation-filters="sRGB">
            <feFlood flood-opacity="0" result="BackgroundImageFix"/>
            <feColorMatrix in="SourceAlpha" type="matrix" values="0 0 0 0 0 0 0 0 0 0 0 0 0 0 0 0 0 0 127 0"
                           result="hardAlpha"/>
            <feOffset dy="-14.8765"/>
            <feGaussianBlur stdDeviation="53.1304"/>
            <feColorMatrix type="matrix" values="0 0 0 0 1 0 0 0 0 0.820833 0 0 0 0 0.992833 0 0 0 0.37 0"/>
            <feBlend mode="normal" in2="BackgroundImageFix" result="effect1_dropShadow_7_435"/>
            <feBlend mode="normal" in="SourceGraphic" in2="effect1_dropShadow_7_435" result="shape"/>
        </filter>
        <filter id="filter2_ii_7_435" x="69.2777" y="108.727" width="345.407" height="381.317"
                filterUnits="userSpaceOnUse" color-interpolation-filters="sRGB">
            <feFlood flood-opacity="0" result="BackgroundImageFix"/>
            <feBlend mode="normal" in="SourceGraphic" in2="BackgroundImageFix" result="shape"/>
            <feColorMatrix in="SourceAlpha" type="matrix" values="0 0 0 0 0 0 0 0 0 0 0 0 0 0 0 0 0 0 127 0"
                           result="hardAlpha"/>
            <feOffset dy="-9.56348"/>
            <feGaussianBlur stdDeviation="9.56348"/>
            <feComposite in2="hardAlpha" operator="arithmetic" k2="-1" k3="1"/>
            <feColorMatrix type="matrix" values="0 0 0 0 0.379167 0 0 0 0 0.102691 0 0 0 0 0.351519 0 0 0 0.31 0"/>
            <feBlend mode="normal" in2="shape" result="effect1_innerShadow_7_435"/>
            <feColorMatrix in="SourceAlpha" type="matrix" values="0 0 0 0 0 0 0 0 0 0 0 0 0 0 0 0 0 0 127 0"
                           result="hardAlpha"/>
            <feOffset dx="-37.1913" dy="-12.7513"/>
            <feGaussianBlur stdDeviation="42.5043"/>
            <feComposite in2="hardAlpha" operator="arithmetic" k2="-1" k3="1"/>
            <feColorMatrix type="matrix" values="0 0 0 0 0.356342 0 0 0 0 0.165208 0 0 0 0 0.7625 0 0 0 0.28 0"/>
            <feBlend mode="normal" in2="effect1_innerShadow_7_435" result="effect2_innerShadow_7_435"/>
        </filter>
        <filter id="filter3_f_7_435" x="87.4458" y="303.559" width="347.374" height="237.438"
                filterUnits="userSpaceOnUse" color-interpolation-filters="sRGB">
            <feFlood flood-opacity="0" result="BackgroundImageFix"/>
            <feBlend mode="normal" in="SourceGraphic" in2="BackgroundImageFix" result="shape"/>
            <feGaussianBlur stdDeviation="40.8848" result="effect1_foregroundBlur_7_435"/>
        </filter>
        <filter id="filter4_dd_7_435" x="236.619" y="419.248" width="49.9865" height="39.4752"
                filterUnits="userSpaceOnUse" color-interpolation-filters="sRGB">
            <feFlood flood-opacity="0" result="BackgroundImageFix"/>
            <feColorMatrix in="SourceAlpha" type="matrix" values="0 0 0 0 0 0 0 0 0 0 0 0 0 0 0 0 0 0 127 0"
                           result="hardAlpha"/>
            <feOffset dy="6.37565"/>
            <feGaussianBlur stdDeviation="5.84435"/>
            <feColorMatrix type="matrix" values="0 0 0 0 0.599108 0 0 0 0 0.279792 0 0 0 0 0.85 0 0 0 0.35 0"/>
            <feBlend mode="normal" in2="BackgroundImageFix" result="effect1_dropShadow_7_435"/>
            <feColorMatrix in="SourceAlpha" type="matrix" values="0 0 0 0 0 0 0 0 0 0 0 0 0 0 0 0 0 0 127 0"
                           result="hardAlpha"/>
            <feOffset dx="-2.12522" dy="-1.06261"/>
            <feGaussianBlur stdDeviation="3.91311"/>
            <feColorMatrix type="matrix" values="0 0 0 0 1 0 0 0 0 1 0 0 0 0 1 0 0 0 0.2 0"/>
            <feBlend mode="normal" in2="effect1_dropShadow_7_435" result="effect2_dropShadow_7_435"/>
            <feBlend mode="normal" in="SourceGraphic" in2="effect2_dropShadow_7_435" result="shape"/>
        </filter>
        <filter id="filter5_dd_7_435" x="128.384" y="239.268" width="89.2591" height="93.5095"
                filterUnits="userSpaceOnUse" color-interpolation-filters="sRGB">
            <feFlood flood-opacity="0" result="BackgroundImageFix"/>
            <feColorMatrix in="SourceAlpha" type="matrix" values="0 0 0 0 0 0 0 0 0 0 0 0 0 0 0 0 0 0 127 0"
                           result="hardAlpha"/>
            <feOffset dy="7.43826"/>
            <feGaussianBlur stdDeviation="3.71913"/>
            <feColorMatrix type="matrix" values="0 0 0 0 0.603458 0 0 0 0 0.390104 0 0 0 0 0.875 0 0 0 0.32 0"/>
            <feBlend mode="normal" in2="BackgroundImageFix" result="effect1_dropShadow_7_435"/>
            <feColorMatrix in="SourceAlpha" type="matrix" values="0 0 0 0 0 0 0 0 0 0 0 0 0 0 0 0 0 0 127 0"
                           result="hardAlpha"/>
            <feOffset dx="-2.12522" dy="-2.12522"/>
            <feGaussianBlur stdDeviation="1.06261"/>
            <feColorMatrix type="matrix" values="0 0 0 0 1 0 0 0 0 1 0 0 0 0 1 0 0 0 0.4 0"/>
            <feBlend mode="normal" in2="effect1_dropShadow_7_435" result="effect2_dropShadow_7_435"/>
            <feBlend mode="normal" in="SourceGraphic" in2="effect2_dropShadow_7_435" result="shape"/>
        </filter>
        <filter id="filter6_dd_7_435" x="301.59" y="239.268" width="89.2591" height="93.5095"
                filterUnits="userSpaceOnUse" color-interpolation-filters="sRGB">
            <feFlood flood-opacity="0" result="BackgroundImageFix"/>
            <feColorMatrix in="SourceAlpha" type="matrix" values="0 0 0 0 0 0 0 0 0 0 0 0 0 0 0 0 0 0 127 0"
                           result="hardAlpha"/>
            <feOffset dy="7.43826"/>
            <feGaussianBlur stdDeviation="3.71913"/>
            <feColorMatrix type="matrix" values="0 0 0 0 0.603458 0 0 0 0 0.390104 0 0 0 0 0.875 0 0 0 0.32 0"/>
            <feBlend mode="normal" in2="BackgroundImageFix" result="effect1_dropShadow_7_435"/>
            <feColorMatrix in="SourceAlpha" type="matrix" values="0 0 0 0 0 0 0 0 0 0 0 0 0 0 0 0 0 0 127 0"
                           result="hardAlpha"/>
            <feOffset dx="-2.12522" dy="-2.12522"/>
            <feGaussianBlur stdDeviation="1.06261"/>
            <feColorMatrix type="matrix" values="0 0 0 0 1 0 0 0 0 1 0 0 0 0 1 0 0 0 0.4 0"/>
            <feBlend mode="normal" in2="effect1_dropShadow_7_435" result="effect2_dropShadow_7_435"/>
            <feBlend mode="normal" in="SourceGraphic" in2="effect2_dropShadow_7_435" result="shape"/>
        </filter>
        <linearGradient id="paint0_linear_7_435" x1="262.85" y1="902.406" x2="262.85" y2="921.189"
                        gradientUnits="userSpaceOnUse">
            <stop/>
            <stop offset="1" stop-color="#151433" stop-opacity="0.87"/>
            <stop offset="1" stop-color="#251F27" stop-opacity="0.87"/>
        </linearGradient>
        <linearGradient id="paint1_linear_7_435" x1="260.679" y1="121.318" x2="261.223" y2="919.869"
                        gradientUnits="userSpaceOnUse">
            <stop stop-color="#0D0038"/>
            <stop offset="1" stop-opacity="0"/>
        </linearGradient>
        <linearGradient id="paint2_linear_7_435" x1="386.692" y1="224.89" x2="73.1143" y2="499.153"
                        gradientUnits="userSpaceOnUse">
            <stop stop-color="#0D0038" stop-opacity="0.64"/>
            <stop offset="1" stop-color="#0D0038" stop-opacity="0"/>
        </linearGradient>
        <linearGradient id="paint3_linear_7_435" x1="260.679" y1="113.88" x2="260.679" y2="490.043"
                        gradientUnits="userSpaceOnUse">
            <stop stop-color="white"/>
            <stop offset="0.0698237" stop-color="#F4F0F4" stop-opacity="0.990923"/>
            <stop offset="0.942282" stop-color="#C7C5FE" stop-opacity="0.77"/>
            <stop offset="1" stop-color="#C4C2FF" stop-opacity="0.81"/>
        </linearGradient>
        <linearGradient id="paint4_linear_7_435" x1="261.21" y1="384.845" x2="261.21" y2="459.228"
                        gradientUnits="userSpaceOnUse">
            <stop stop-color="#5B225C"/>
            <stop offset="1" stop-color="#151433" stop-opacity="0.87"/>
            <stop offset="1" stop-color="#59266B" stop-opacity="0.87"/>
        </linearGradient>
        <linearGradient id="paint5_linear_7_435" x1="264.816" y1="423.223" x2="264.819" y2="442.323"
                        gradientUnits="userSpaceOnUse">
            <stop stop-color="#261953"/>
            <stop offset="1" stop-color="#11082F"/>
        </linearGradient>
        <linearGradient id="paint6_linear_7_435" x1="173.014" y1="248.853" x2="173.043" y2="324.494"
                        gradientUnits="userSpaceOnUse">
            <stop stop-color="#2E1E65"/>
            <stop offset="1" stop-color="#11082F"/>
        </linearGradient>
        <linearGradient id="paint7_linear_7_435" x1="202.236" y1="326.402" x2="142.578" y2="349.179"
                        gradientUnits="userSpaceOnUse">
            <stop stop-color="#FE4A23" stop-opacity="0.35"/>
            <stop offset="1" stop-color="#FA43B0" stop-opacity="0"/>
        </linearGradient>
        <linearGradient id="paint8_linear_7_435" x1="172.483" y1="168.073" x2="171.979" y2="250.209"
                        gradientUnits="userSpaceOnUse">
            <stop stop-color="#FE4A23" stop-opacity="0.42"/>
            <stop offset="1" stop-color="#FA43B0" stop-opacity="0.38"/>
        </linearGradient>
        <linearGradient id="paint9_linear_7_435" x1="172.483" y1="429.475" x2="171.83" y2="335.967"
                        gradientUnits="userSpaceOnUse">
            <stop stop-color="#FE4A23" stop-opacity="0.17"/>
            <stop offset="1" stop-color="#FA43B0" stop-opacity="0.48"/>
        </linearGradient>
        <linearGradient id="paint10_linear_7_435" x1="37.1913" y1="5.33461" x2="37.2206" y2="80.9754"
                        gradientUnits="userSpaceOnUse">
            <stop stop-color="#2E1E65"/>
            <stop offset="1" stop-color="#11082F"/>
        </linearGradient>
        <linearGradient id="paint11_linear_7_435" x1="46.2235" y1="-1.61202e-06" x2="-13.4346" y2="22.7768"
                        gradientUnits="userSpaceOnUse">
            <stop stop-color="#FE4A23" stop-opacity="0.35"/>
            <stop offset="1" stop-color="#FA43B0" stop-opacity="0"/>
        </linearGradient>
        <linearGradient id="paint12_linear_7_435" x1="346.75" y1="168.073" x2="347.254" y2="250.209"
                        gradientUnits="userSpaceOnUse">
            <stop stop-color="#FE4A23" stop-opacity="0.42"/>
            <stop offset="1" stop-color="#FA43B0" stop-opacity="0.38"/>
        </linearGradient>
        <linearGradient id="paint13_linear_7_435" x1="346.75" y1="429.475" x2="347.403" y2="335.967"
                        gradientUnits="userSpaceOnUse">
            <stop stop-color="#FE4A23" stop-opacity="0.17"/>
            <stop offset="1" stop-color="#FA43B0" stop-opacity="0.48"/>
        </linearGradient>
    </defs>
</svg>
