<svg width="769" height="1023" viewBox="0 0 769 1023" fill="none" xmlns="http://www.w3.org/2000/svg">
    <path d="M68.7202 529.151C129.619 529.151 122.176 474.101 122.176 474.101H195.931C195.931 520.292 176.143 582.357 76.84 573.445C32.1237 569.431 12.6973 538.575 13.4513 504.952C13.5968 498.465 19.2319 493.716 25.7211 493.716C29.3814 493.716 32.4761 496.501 33.4145 500.039C36.1173 510.229 44.4093 529.151 68.7202 529.151Z"
          fill="url(#paint0_linear_7_457)"/>
    <path d="M84.1933 270.808C81.8965 166.966 167.678 86.2482 271.545 86.2482C366.958 86.2482 448.832 154.566 474.442 246.477C499.22 335.401 536.85 449.082 589.46 554.692C643.466 663.106 670.469 717.313 669.344 739.06C667.761 769.649 660.557 783.089 635.959 801.34C618.471 814.316 568.469 820.573 468.465 833.089L378.558 844.341C350.813 847.813 336.94 849.549 323.242 847.7C323.233 847.698 323.224 847.697 323.215 847.696C309.518 845.843 296.604 840.487 270.776 829.775L242.593 818.086C224.92 810.757 216.084 807.092 206.697 799.453C206.213 799.058 205.276 798.272 204.803 797.863C195.649 789.948 192.055 784.314 184.867 773.047C107.592 651.919 87.7074 429.686 84.1933 270.808Z"
          fill="url(#paint1_linear_7_457)"/>
    <g opacity="0.5" filter="url(#filter0_f_7_457)">
        <ellipse cx="447.623" cy="927.798" rx="129.133" ry="9.39147" fill="url(#paint2_linear_7_457)"/>
    </g>
    <path d="M262.115 571.655C323.014 571.655 315.571 516.605 315.571 516.605H389.326C389.326 562.797 369.538 624.862 270.235 615.949C225.519 611.935 206.092 581.08 206.846 547.456C206.992 540.969 212.627 536.22 219.116 536.22C222.776 536.22 225.871 539.005 226.81 542.543C229.512 552.733 237.804 571.655 262.115 571.655Z"
          fill="url(#paint3_linear_7_457)"/>
    <g filter="url(#filter1_d_7_457)">
        <g filter="url(#filter2_ii_7_457)">
            <path d="M109.227 274.057C106.519 230.96 125.086 189.268 158.931 162.451C202.832 127.664 262.367 119.998 313.65 142.526L318.373 144.601C375.103 169.523 408.556 228.918 400.462 290.351L388.398 381.908C379.404 450.17 321.213 501.197 252.361 501.197C179.922 501.197 119.961 444.886 115.418 372.589L109.227 274.057Z"
                  fill="url(#paint4_linear_7_457)"/>
        </g>
        <g opacity="0.12" filter="url(#filter3_f_7_457)">
            <path d="M117.212 391.755C115.665 369.872 131.26 350.499 152.969 347.337L200.977 340.344C211.257 338.847 221.7 338.847 231.98 340.344L279.79 347.308C301.588 350.483 317.217 369.977 315.578 391.944C312.925 427.488 283.312 454.973 247.668 454.973H185.059C149.356 454.973 119.731 427.369 117.212 391.755Z"
                  fill="url(#paint5_linear_7_457)"/>
        </g>
        <g filter="url(#filter4_dd_7_457)">
            <rect x="195.225" y="393.342" width="21.2522" height="53.1304" rx="10.6261"
                  fill="url(#paint6_linear_7_457)"/>
        </g>
    </g>
    <g filter="url(#filter5_dd_7_457)">
        <ellipse cx="153.784" cy="296.113" rx="32.9409" ry="32.4096" fill="url(#paint7_linear_7_457)"/>
    </g>
    <ellipse cx="153.784" cy="343.931" rx="14.8765" ry="7.96956" fill="url(#paint8_linear_7_457)"/>
    <path d="M146.293 213.612C148.433 203.775 157.139 196.76 167.206 196.76C168.597 196.76 169.724 197.887 169.724 199.278V242.629C169.724 250.747 163.143 257.328 155.024 257.328C145.647 257.328 138.667 248.667 140.661 239.504L146.293 213.612Z"
          fill="url(#paint9_linear_7_457)"/>
    <path d="M145.009 408.581C146.778 419.401 156.127 427.346 167.092 427.346C168.545 427.346 169.724 426.167 169.724 424.713V373.409C169.724 365.051 162.949 358.276 154.591 358.276C145.259 358.276 138.151 366.641 139.657 375.851L145.009 408.581Z"
          fill="url(#paint10_linear_7_457)"/>
    <g filter="url(#filter6_dd_7_457)">
        <circle r="35.526" transform="matrix(-1 -8.74228e-08 -8.74228e-08 1 282.195 296.834)"
                fill="url(#paint11_linear_7_457)"/>
    </g>
    <ellipse rx="16.2405" ry="8.62775" transform="matrix(-1 -8.74228e-08 -8.74228e-08 1 282.195 349.109)"
             fill="url(#paint12_linear_7_457)"/>
    <path d="M290.172 207.429C287.887 196.818 278.504 189.241 267.65 189.241C266.153 189.241 264.939 190.455 264.939 191.952L264.939 239.347C264.939 248.112 272.045 255.218 280.811 255.218C290.922 255.218 298.456 245.889 296.327 236.005L290.172 207.429Z"
          fill="url(#paint13_linear_7_457)"/>
    <path d="M291.568 418.693C289.675 430.364 279.598 438.939 267.775 438.939C266.209 438.939 264.939 437.669 264.939 436.103L264.939 380.159C264.939 371.139 272.251 363.827 281.271 363.827C291.334 363.827 299.004 372.839 297.393 382.773L291.568 418.693Z"
          fill="url(#paint14_linear_7_457)"/>
    <defs>
        <filter id="filter0_f_7_457" x="233.486" y="833.401" width="428.275" height="188.793"
                filterUnits="userSpaceOnUse" color-interpolation-filters="sRGB">
            <feFlood flood-opacity="0" result="BackgroundImageFix"/>
            <feBlend mode="normal" in="SourceGraphic" in2="BackgroundImageFix" result="shape"/>
            <feGaussianBlur stdDeviation="42.5025" result="effect1_foregroundBlur_7_457"/>
        </filter>
        <filter id="filter1_d_7_457" x="0.580498" y="0.117146" width="509.467" height="588.214"
                filterUnits="userSpaceOnUse" color-interpolation-filters="sRGB">
            <feFlood flood-opacity="0" result="BackgroundImageFix"/>
            <feColorMatrix in="SourceAlpha" type="matrix" values="0 0 0 0 0 0 0 0 0 0 0 0 0 0 0 0 0 0 127 0"
                           result="hardAlpha"/>
            <feOffset dy="-21.2522"/>
            <feGaussianBlur stdDeviation="54.193"/>
            <feColorMatrix type="matrix" values="0 0 0 0 1 0 0 0 0 0.820833 0 0 0 0 0.992833 0 0 0 0.35 0"/>
            <feBlend mode="normal" in2="BackgroundImageFix" result="effect1_dropShadow_7_457"/>
            <feBlend mode="normal" in="SourceGraphic" in2="effect1_dropShadow_7_457" result="shape"/>
        </filter>
        <filter id="filter2_ii_7_457" x="62.2118" y="120.192" width="339.45" height="395.881"
                filterUnits="userSpaceOnUse" color-interpolation-filters="sRGB">
            <feFlood flood-opacity="0" result="BackgroundImageFix"/>
            <feBlend mode="normal" in="SourceGraphic" in2="BackgroundImageFix" result="shape"/>
            <feColorMatrix in="SourceAlpha" type="matrix" values="0 0 0 0 0 0 0 0 0 0 0 0 0 0 0 0 0 0 127 0"
                           result="hardAlpha"/>
            <feOffset dy="-9.56348"/>
            <feGaussianBlur stdDeviation="9.56348"/>
            <feComposite in2="hardAlpha" operator="arithmetic" k2="-1" k3="1"/>
            <feColorMatrix type="matrix" values="0 0 0 0 0.379167 0 0 0 0 0.102691 0 0 0 0 0.351519 0 0 0 0.31 0"/>
            <feBlend mode="normal" in2="shape" result="effect1_innerShadow_7_457"/>
            <feColorMatrix in="SourceAlpha" type="matrix" values="0 0 0 0 0 0 0 0 0 0 0 0 0 0 0 0 0 0 127 0"
                           result="hardAlpha"/>
            <feOffset dx="-46.7548" dy="14.8765"/>
            <feGaussianBlur stdDeviation="42.5043"/>
            <feComposite in2="hardAlpha" operator="arithmetic" k2="-1" k3="1"/>
            <feColorMatrix type="matrix" values="0 0 0 0 0.291279 0 0 0 0 0.061684 0 0 0 0 0.779167 0 0 0 0.28 0"/>
            <feBlend mode="normal" in2="effect1_innerShadow_7_457" result="effect2_innerShadow_7_457"/>
        </filter>
        <filter id="filter3_f_7_457" x="35.3372" y="257.452" width="362.128" height="279.291"
                filterUnits="userSpaceOnUse" color-interpolation-filters="sRGB">
            <feFlood flood-opacity="0" result="BackgroundImageFix"/>
            <feBlend mode="normal" in="SourceGraphic" in2="BackgroundImageFix" result="shape"/>
            <feGaussianBlur stdDeviation="40.8848" result="effect1_foregroundBlur_7_457"/>
        </filter>
        <filter id="filter4_dd_7_457" x="183.537" y="384.453" width="44.6296" height="80.0836"
                filterUnits="userSpaceOnUse" color-interpolation-filters="sRGB">
            <feFlood flood-opacity="0" result="BackgroundImageFix"/>
            <feColorMatrix in="SourceAlpha" type="matrix" values="0 0 0 0 0 0 0 0 0 0 0 0 0 0 0 0 0 0 127 0"
                           result="hardAlpha"/>
            <feOffset dy="6.37565"/>
            <feGaussianBlur stdDeviation="5.84435"/>
            <feColorMatrix type="matrix" values="0 0 0 0 0.599108 0 0 0 0 0.279792 0 0 0 0 0.85 0 0 0 0.35 0"/>
            <feBlend mode="normal" in2="BackgroundImageFix" result="effect1_dropShadow_7_457"/>
            <feColorMatrix in="SourceAlpha" type="matrix" values="0 0 0 0 0 0 0 0 0 0 0 0 0 0 0 0 0 0 127 0"
                           result="hardAlpha"/>
            <feOffset dx="-2.12522" dy="-1.06261"/>
            <feGaussianBlur stdDeviation="3.91311"/>
            <feColorMatrix type="matrix" values="0 0 0 0 1 0 0 0 0 1 0 0 0 0 1 0 0 0 0.2 0"/>
            <feBlend mode="normal" in2="effect1_dropShadow_7_457" result="effect2_dropShadow_7_457"/>
            <feBlend mode="normal" in="SourceGraphic" in2="effect2_dropShadow_7_457" result="shape"/>
        </filter>
        <filter id="filter5_dd_7_457" x="108.425" y="257.423" width="83.518" height="85.31" filterUnits="userSpaceOnUse"
                color-interpolation-filters="sRGB">
            <feFlood flood-opacity="0" result="BackgroundImageFix"/>
            <feColorMatrix in="SourceAlpha" type="matrix" values="0 0 0 0 0 0 0 0 0 0 0 0 0 0 0 0 0 0 127 0"
                           result="hardAlpha"/>
            <feOffset dx="-5.31304" dy="7.1052"/>
            <feGaussianBlur stdDeviation="3.5526"/>
            <feColorMatrix type="matrix" values="0 0 0 0 0.603458 0 0 0 0 0.390104 0 0 0 0 0.875 0 0 0 0.32 0"/>
            <feBlend mode="normal" in2="BackgroundImageFix" result="effect1_dropShadow_7_457"/>
            <feColorMatrix in="SourceAlpha" type="matrix" values="0 0 0 0 0 0 0 0 0 0 0 0 0 0 0 0 0 0 127 0"
                           result="hardAlpha"/>
            <feOffset dx="3.18783" dy="-4.25043"/>
            <feGaussianBlur stdDeviation="1.01503"/>
            <feColorMatrix type="matrix" values="0 0 0 0 1 0 0 0 0 1 0 0 0 0 1 0 0 0 0.4 0"/>
            <feBlend mode="normal" in2="effect1_dropShadow_7_457" result="effect2_dropShadow_7_457"/>
            <feBlend mode="normal" in="SourceGraphic" in2="effect2_dropShadow_7_457" result="shape"/>
        </filter>
        <filter id="filter6_dd_7_457" x="235.313" y="257.248" width="86.5629" height="89.6556"
                filterUnits="userSpaceOnUse" color-interpolation-filters="sRGB">
            <feFlood flood-opacity="0" result="BackgroundImageFix"/>
            <feColorMatrix in="SourceAlpha" type="matrix" values="0 0 0 0 0 0 0 0 0 0 0 0 0 0 0 0 0 0 127 0"
                           result="hardAlpha"/>
            <feOffset dx="-4.25043" dy="7.43826"/>
            <feGaussianBlur stdDeviation="3.5526"/>
            <feColorMatrix type="matrix" values="0 0 0 0 0.603458 0 0 0 0 0.390104 0 0 0 0 0.875 0 0 0 0.32 0"/>
            <feBlend mode="normal" in2="BackgroundImageFix" result="effect1_dropShadow_7_457"/>
            <feColorMatrix in="SourceAlpha" type="matrix" values="0 0 0 0 0 0 0 0 0 0 0 0 0 0 0 0 0 0 127 0"
                           result="hardAlpha"/>
            <feOffset dx="2.12522" dy="-2.03006"/>
            <feGaussianBlur stdDeviation="1.01503"/>
            <feColorMatrix type="matrix" values="0 0 0 0 1 0 0 0 0 1 0 0 0 0 1 0 0 0 0.4 0"/>
            <feBlend mode="normal" in2="effect1_dropShadow_7_457" result="effect2_dropShadow_7_457"/>
            <feBlend mode="normal" in="SourceGraphic" in2="effect2_dropShadow_7_457" result="shape"/>
        </filter>
        <linearGradient id="paint0_linear_7_457" x1="63.5945" y1="510.761" x2="118.701" y2="510.761"
                        gradientUnits="userSpaceOnUse">
            <stop stop-color="#0D0038" stop-opacity="0.37"/>
            <stop offset="1" stop-opacity="0"/>
        </linearGradient>
        <linearGradient id="paint1_linear_7_457" x1="315.832" y1="142.566" x2="299.986" y2="961.11"
                        gradientUnits="userSpaceOnUse">
            <stop stop-color="#0D0038"/>
            <stop offset="1" stop-opacity="0.03"/>
        </linearGradient>
        <linearGradient id="paint2_linear_7_457" x1="447.623" y1="918.406" x2="447.623" y2="937.189"
                        gradientUnits="userSpaceOnUse">
            <stop/>
            <stop offset="1" stop-color="#151433" stop-opacity="0.87"/>
            <stop offset="1" stop-color="#251F27" stop-opacity="0.87"/>
        </linearGradient>
        <linearGradient id="paint3_linear_7_457" x1="223.753" y1="566.277" x2="332.446" y2="516.138"
                        gradientUnits="userSpaceOnUse">
            <stop stop-color="#0D0038" stop-opacity="0.37"/>
            <stop offset="0.626611" stop-color="#050015" stop-opacity="0.08"/>
            <stop offset="1" stop-opacity="0"/>
        </linearGradient>
        <linearGradient id="paint4_linear_7_457" x1="259.513" y1="105.906" x2="259.513" y2="501.197"
                        gradientUnits="userSpaceOnUse">
            <stop stop-color="white"/>
            <stop offset="0.0698237" stop-color="#F4F0F4" stop-opacity="0.990923"/>
            <stop offset="0.942282" stop-color="#C7C5FE" stop-opacity="0.77"/>
            <stop offset="1" stop-color="#C4C2FF" stop-opacity="0.81"/>
        </linearGradient>
        <linearGradient id="paint5_linear_7_457" x1="216.478" y1="338.086" x2="216.478" y2="454.973"
                        gradientUnits="userSpaceOnUse">
            <stop stop-color="#5B225C"/>
            <stop offset="1" stop-color="#151433" stop-opacity="0.87"/>
            <stop offset="1" stop-color="#59266B" stop-opacity="0.87"/>
        </linearGradient>
        <linearGradient id="paint6_linear_7_457" x1="205.851" y1="397.153" x2="205.904" y2="451.182"
                        gradientUnits="userSpaceOnUse">
            <stop stop-color="#261953"/>
            <stop offset="1" stop-color="#11082F"/>
        </linearGradient>
        <linearGradient id="paint7_linear_7_457" x1="153.784" y1="268.353" x2="153.81" y2="334.268"
                        gradientUnits="userSpaceOnUse">
            <stop stop-color="#2E1E65"/>
            <stop offset="1" stop-color="#11082F"/>
        </linearGradient>
        <linearGradient id="paint8_linear_7_457" x1="179.353" y1="335.961" x2="127.042" y2="355.767"
                        gradientUnits="userSpaceOnUse">
            <stop stop-color="#FE4A23" stop-opacity="0.35"/>
            <stop offset="1" stop-color="#FA43B0" stop-opacity="0"/>
        </linearGradient>
        <linearGradient id="paint9_linear_7_457" x1="153.254" y1="196.76" x2="152.816" y2="268.787"
                        gradientUnits="userSpaceOnUse">
            <stop stop-color="#FE4A23" stop-opacity="0.42"/>
            <stop offset="1" stop-color="#FA43B0" stop-opacity="0.38"/>
        </linearGradient>
        <linearGradient id="paint10_linear_7_457" x1="153.254" y1="427.346" x2="152.685" y2="345.21"
                        gradientUnits="userSpaceOnUse">
            <stop stop-color="#FE4A23" stop-opacity="0.17"/>
            <stop offset="1" stop-color="#FA43B0" stop-opacity="0.48"/>
        </linearGradient>
        <linearGradient id="paint11_linear_7_457" x1="35.526" y1="5.09575" x2="35.554" y2="77.3496"
                        gradientUnits="userSpaceOnUse">
            <stop stop-color="#2E1E65"/>
            <stop offset="1" stop-color="#11082F"/>
        </linearGradient>
        <linearGradient id="paint12_linear_7_457" x1="44.1538" y1="-1.53984e-06" x2="-12.8331" y2="21.757"
                        gradientUnits="userSpaceOnUse">
            <stop stop-color="#FE4A23" stop-opacity="0.35"/>
            <stop offset="1" stop-color="#FA43B0" stop-opacity="0"/>
        </linearGradient>
        <linearGradient id="paint13_linear_7_457" x1="282.702" y1="189.241" x2="283.183" y2="267.7"
                        gradientUnits="userSpaceOnUse">
            <stop stop-color="#FE4A23" stop-opacity="0.42"/>
            <stop offset="1" stop-color="#FA43B0" stop-opacity="0.38"/>
        </linearGradient>
        <linearGradient id="paint14_linear_7_457" x1="282.702" y1="438.939" x2="283.326" y2="349.618"
                        gradientUnits="userSpaceOnUse">
            <stop stop-color="#FE4A23" stop-opacity="0.17"/>
            <stop offset="1" stop-color="#FA43B0" stop-opacity="0.48"/>
        </linearGradient>
    </defs>
</svg>
